<svg xmlns="http://www.w3.org/2000/svg" viewBox="0 0 136.71 136.71"><defs><style>.cls-1{fill:#fff;}.cls-2{fill:#1c3766;}</style></defs><g id="Layer_2" data-name="Layer 2"><g id="Layer_1-2" data-name="Layer 1"><circle class="cls-1" cx="68.35" cy="68.35" r="68.35"/><path class="cls-2" d="M34.31,52.89H29V67.34H27.66V52.89H22.34V51.78h12Z"/><path class="cls-2" d="M41.17,60.85H36.65v6.49H35.33V51.78h5.05A5.78,5.78,0,0,1,44.27,53a4.21,4.21,0,0,1,1.4,3.38A4.27,4.27,0,0,1,44.8,59a4.56,4.56,0,0,1-2.36,1.58l3.9,6.62v.14h-1.4Zm-4.52-1.11h4a3.71,3.71,0,0,0,2.66-.94,3.55,3.55,0,0,0,0-5,4.33,4.33,0,0,0-2.94-.91H36.65Z"/><path class="cls-2" d="M56.19,63H49.12l-1.6,4.37H46.14L52,51.78h1.25l5.89,15.56H57.8Zm-6.66-1.11h6.24l-3.12-8.48Zm2.69-11.39V49.14a4.28,4.28,0,0,0,1.36-.28.73.73,0,0,0,.43-.72.84.84,0,0,0-.58-.75,4,4,0,0,0-1.57-.26l.08-.84a4.43,4.43,0,0,1,2.3.51,1.51,1.51,0,0,1,.84,1.34,1.46,1.46,0,0,1-.49,1.15,2.26,2.26,0,0,1-1.39.52v.66Z"/><path class="cls-2" d="M34,88.55a4.35,4.35,0,0,1-2.14,1.52,9.12,9.12,0,0,1-3.27.55,6.11,6.11,0,0,1-3.25-.88,5.85,5.85,0,0,1-2.2-2.48,8.44,8.44,0,0,1-.79-3.68v-2A7.48,7.48,0,0,1,24,76.5a5.53,5.53,0,0,1,4.39-1.88,5.83,5.83,0,0,1,3.87,1.23A5.06,5.06,0,0,1,34,79.22H32.67a4.07,4.07,0,0,0-1.4-2.6,4.49,4.49,0,0,0-2.89-.88,4.2,4.2,0,0,0-3.45,1.55,6.7,6.7,0,0,0-1.28,4.37V83.5a7.71,7.71,0,0,0,.61,3.14A4.8,4.8,0,0,0,26,88.76a4.58,4.58,0,0,0,2.59.75A7.15,7.15,0,0,0,31.5,89a3.15,3.15,0,0,0,1.18-.82v-4H28.5V83H34Z"/><path class="cls-2" d="M47.76,83.47A8.9,8.9,0,0,1,47,87.24a5.62,5.62,0,0,1-2.12,2.5,5.84,5.84,0,0,1-3.18.88,5.54,5.54,0,0,1-4.41-2,7.81,7.81,0,0,1-1.68-5.27V81.8A9,9,0,0,1,36.38,78a5.7,5.7,0,0,1,2.13-2.52,5.76,5.76,0,0,1,3.18-.89,5.83,5.83,0,0,1,3.17.87A5.72,5.72,0,0,1,47,77.94a8.77,8.77,0,0,1,.78,3.67Zm-1.32-1.69a6.87,6.87,0,0,0-1.27-4.41,4.57,4.57,0,0,0-6.94,0,6.91,6.91,0,0,0-1.29,4.46v1.63a6.9,6.9,0,0,0,1.28,4.38,4.22,4.22,0,0,0,3.49,1.62,4.15,4.15,0,0,0,3.48-1.6,7,7,0,0,0,1.25-4.45ZM43,70.49h1.55l-2.47,3H40.92Z"/><path class="cls-2" d="M50.92,84.06V90.4H49.6V74.84h5.31a5.58,5.58,0,0,1,3.83,1.24,4.88,4.88,0,0,1,0,6.79,5.71,5.71,0,0,1-3.92,1.19Zm0-1.11h4A4.21,4.21,0,0,0,57.83,82a3.27,3.27,0,0,0,1-2.54,3.39,3.39,0,0,0-1-2.57A4,4,0,0,0,55,76H50.92Z"/><path class="cls-2" d="M81.94,43.89c10.46,0,16.73,7.94,16.73,23.37,0,16.53-5.55,26.27-17.24,26.27-12,0-17.24-9.89-17.24-25.18C64.19,52.84,70.61,43.89,81.94,43.89Zm-.44,3c-4.32,0-6.27,4.4-6.27,20.85,0,15.94.65,22.58,6.13,22.58,4.26,0,6.28-3.75,6.28-21.86C87.64,50.82,85.76,46.85,81.5,46.85Z"/><path class="cls-2" d="M104,43.8a4.65,4.65,0,0,1,5,4.75,4.89,4.89,0,0,1-5,5.07c-3,0-5-1.83-5-4.87A5,5,0,0,1,104,43.8Zm.09.94c-1.54,0-2.15,1.51-2.15,4.34,0,2.21.47,3.59,2.06,3.59,1,0,2-.73,2-4.15C106.06,46.13,105.5,44.74,104.12,44.74Zm11-1.56a5.3,5.3,0,0,0,1.59,0L106.47,64.7a7,7,0,0,0-.79-.06,7.18,7.18,0,0,0-.8.06Zm2.47,11.08a4.65,4.65,0,0,1,5,4.75,4.89,4.89,0,0,1-5,5.07,4.64,4.64,0,0,1-5-4.87A5,5,0,0,1,117.61,54.26Zm.09,1c-1.53,0-2.15,1.5-2.15,4.33,0,2.21.47,3.59,2.06,3.59,1,0,2-.73,2-4.15C119.65,56.59,119.09,55.21,117.7,55.21Z"/></g></g></svg>