<?xml version="1.0" encoding="utf-8"?>
<!-- Generator: Adobe Illustrator 26.5.0, SVG Export Plug-In . SVG Version: 6.00 Build 0)  -->
<svg version="1.1" id="Layer_1" xmlns="http://www.w3.org/2000/svg" xmlns:xlink="http://www.w3.org/1999/xlink" x="0px" y="0px"
	 viewBox="0 0 136.7 136.7" style="enable-background:new 0 0 136.7 136.7;" xml:space="preserve">
<style type="text/css">
	.st0{fill:#FFFFFF;}
	.st1{fill:#003468;}
	.st2{fill:url(#SVGID_1_);}
	.st3{fill:url(#SVGID_00000122685658050831557470000014103881568432054939_);}
	.st4{fill:url(#SVGID_00000116237561526536515330000003128444162188824245_);}
	.st5{fill:url(#SVGID_00000069363391382772903470000013970930670652570047_);}
	.st6{fill:url(#SVGID_00000107584767831729791250000011093197523663642809_);}
	.st7{fill:url(#SVGID_00000086688172063074299600000009992279139504029093_);}
</style>
<g id="Layer_2_1_">
	<g id="Layer_1-2">
		<circle class="st0" cx="68.3" cy="68.3" r="68.3"/>
	</g>
</g>
<g>
	<g>
		<g>
			<path class="st1" d="M116.4,37.8c-2.4,0-5,0-5,0l0,22.7c0,7.3,0.2,11.9-2,15c-0.1,0.1-0.1,0.2-0.2,0.3c0,0,0,0,0,0
				c-1.4,1.8-3,2.3-3.3,2.4c-0.3,0.1-0.8,0.2-0.7,0.6c0.1,0.3,0.6,0.3,1.9-0.1c0.8-0.2,1.6-0.6,2.1-0.8c0.1,0,0.2-0.1,0.3-0.2
				c4.1-2.1,5.6-5,6.5-7.7c0.7-2.2,0.8-5,0.9-7.4c0.1-2.2,0-4.7,0-6.5v-5.9c0-3.8,0-5.5,0.1-6.5c0,0,0-1.8,0.1-1.9
				c0.1-0.7,0.1-1.3,0.3-1.9c0.2-0.4,0.4-0.8,0.7-1.1c0.6-0.5,1.6-0.3,1.6-0.7C119.6,37.7,118.7,37.8,116.4,37.8z"/>
			<path class="st1" d="M70.1,40.3c-0.8-0.6-2.7-2.4-8.3-2.4c-2.1,0-9,0-9,0c-2.4,0-3.2-0.1-3.2,0.4c0,0.4,1,0.2,1.6,0.7
				c0.3,0.2,0.5,0.5,0.6,0.8c0.4,1.1,0.4,2.9,0.5,3.7c0.1,1.3,0.1,3.3,0.1,6.9v7.5c0,2.6,0,6.1-0.1,7.9c0,0.2,0,0.4,0,0.6h0
				c0,0,0,0,0,0c0,0.4-0.1,0.9-0.1,1.5c0,0.1,0,0.1,0,0.2c-0.1,0.6-0.2,1.1-0.3,1.5c-0.2,0.3-0.3,0.6-0.6,0.8
				c-0.6,0.5-1.6,0.3-1.6,0.7c0,0.5,0.9,0.4,3.2,0.4c2.4,0,5,0,5,0l0-30.7c0-0.5,0.1-0.7,0.4-0.8c0.4-0.1,1.1-0.2,1.7-0.2
				c1,0,2.9,0.3,4.5,1.7c2.5,2.1,2.7,5,2.6,6.4c-0.1,2.5-0.9,4.2-1.9,5.4c-2.1,2-3.7,1.8-3.9,1.8c-0.4,0-0.9,0.1-0.8,0.4
				c0,0.3,0.5,0.4,1.9,0.3c1.4-0.1,2.4-0.4,2.8-0.5c3.8-1.3,7.8-4.4,7.5-9.7C72.5,42.6,71.1,41.1,70.1,40.3z"/>
			<path class="st1" d="M100.1,37.8c-2,0-2.8-0.1-2.8,0.4c0,0.4,1,0.2,1.6,0.7c0.2,0.2,0.3,0.3,0.5,0.6c0.2,0.3,0.3,0.8,0.4,1.3
				c0.2,1.4,0.2,3,0.2,3l0,0l0,16.5C97.9,58.3,81.6,42,77.4,38c-0.1-0.1-0.4-0.2-0.6-0.2c-0.3,0.1-0.4,0.4-0.4,0.6l0,33
				c0,0,1.4,0,3.7,0c2.3,0,3.2,0.1,3.2-0.4c0-0.4-1-0.2-1.6-0.7c-0.1-0.1-0.3-0.3-0.4-0.4c0,0,0,0,0-0.1c0,0,0,0,0,0
				c-0.7-1.2-0.7-4.3-0.7-4.3h0V48.9c0,0,18.6,18.1,22.9,22.3c0.1,0.1,0.4,0.1,0.5,0.1c0.3-0.1,0.3-0.5,0.3-0.7l0,0l0-32.8H100.1z"
				/>
		</g>
		<g>
			<linearGradient id="SVGID_1_" gradientUnits="userSpaceOnUse" x1="-74.6747" y1="92.4922" x2="147.3502" y2="92.4922">
				<stop  offset="5.494510e-03" style="stop-color:#FFFFFF"/>
				<stop  offset="0.263" style="stop-color:#E6D0A1"/>
				<stop  offset="0.3785" style="stop-color:#E5CE9E"/>
				<stop  offset="0.4779" style="stop-color:#E2C793"/>
				<stop  offset="0.5711" style="stop-color:#DCBB81"/>
				<stop  offset="0.6264" style="stop-color:#D8B273"/>
				<stop  offset="0.6879" style="stop-color:#C7A469"/>
				<stop  offset="0.8092" style="stop-color:#9C8050"/>
				<stop  offset="0.9771" style="stop-color:#574527"/>
				<stop  offset="1" style="stop-color:#4D3D21"/>
			</linearGradient>
			<path class="st2" d="M58.4,82.3H34.6c-0.7,0-1.4,0.6-1.4,1.3c0,0.8,0.6,1.4,1.4,1.4h4.7c0.9,0,1.6,0.8,1.4,1.8
				C40.6,87.6,40,88,39.3,88l-14.3,0c-0.8,0-1.4,0.7-1.4,1.5c0,0.8,0.7,1.4,1.5,1.4l8.7,0c0.9,0,1.6,0.8,1.4,1.8
				c-0.1,0.7-0.8,1.2-1.4,1.2H18.3c-0.9,0-1.7,0.8-1.5,1.8c0.1,0.7,0.8,1.2,1.6,1.2h21c0.9,0,1.6,0.8,1.4,1.8
				c-0.1,0.7-0.8,1.2-1.4,1.2h-9.2c-0.8,0-1.4,0.6-1.5,1.4c0,0.8,0.7,1.5,1.6,1.5h13.4l0-0.1c0.7-4.3,1-6.1,1.8-9.7
				c1.9,0,8.5,0,10.9,0.4c0-0.6,0.1-1.6,0.6-2.7c-1.3,0.1-7.2,0.1-8.4,0.1c-0.8,0-2,0-2.6-0.1c0.6-2.6,0.9-4,1.4-6
				c3.2,0,8.8,0,10.8,0.3c0.1-0.9,0.3-1.8,0.8-2.6l0,0h0c0,0,0,0,0,0C58.7,82.3,58.5,82.3,58.4,82.3z"/>
			
				<linearGradient id="SVGID_00000157997942570376157320000012622285440185446841_" gradientUnits="userSpaceOnUse" x1="-94.9337" y1="92.3888" x2="158.3685" y2="92.3888">
				<stop  offset="5.494510e-03" style="stop-color:#FFFFFF"/>
				<stop  offset="0.263" style="stop-color:#E6D0A1"/>
				<stop  offset="0.3785" style="stop-color:#E5CE9E"/>
				<stop  offset="0.4779" style="stop-color:#E2C793"/>
				<stop  offset="0.5711" style="stop-color:#DCBB81"/>
				<stop  offset="0.6264" style="stop-color:#D8B273"/>
				<stop  offset="0.6879" style="stop-color:#C7A469"/>
				<stop  offset="0.8092" style="stop-color:#9C8050"/>
				<stop  offset="0.9771" style="stop-color:#574527"/>
				<stop  offset="1" style="stop-color:#4D3D21"/>
			</linearGradient>
			<path style="fill:url(#SVGID_00000157997942570376157320000012622285440185446841_);" d="M69.6,82.2c-0.6,0-1-0.1-1.3-0.1
				c-0.7,1.6-1.9,4-2.8,5.5c-5.9,10.9-6.6,12.1-8.5,15.1c0.6-0.1,1.2-0.1,1.7-0.1c0.6,0,1.2,0.1,1.9,0.1c0.6-1.4,1.3-3.2,2.6-5.8
				c1,0,2.2-0.1,3.3-0.1c1.1,0,2.2,0,3.2,0.1c0.4,2.2,0.6,3.4,0.9,5.8c1-0.1,2-0.1,3-0.1c0.9,0,1.8,0.1,2.7,0.1
				c-0.9-3-3.9-14.6-5-20.6C70.7,82.1,70,82.2,69.6,82.2z M66.7,94.8c-0.8,0-1.8,0-2.5-0.1l3.5-6.5l1.5,6.5
				C68.6,94.8,67.7,94.8,66.7,94.8z"/>
			
				<linearGradient id="SVGID_00000115490196235162242170000018018445852021079977_" gradientUnits="userSpaceOnUse" x1="-97.8236" y1="92.5364" x2="155.4785" y2="92.5364">
				<stop  offset="5.494510e-03" style="stop-color:#FFFFFF"/>
				<stop  offset="0.263" style="stop-color:#E6D0A1"/>
				<stop  offset="0.3785" style="stop-color:#E5CE9E"/>
				<stop  offset="0.4779" style="stop-color:#E2C793"/>
				<stop  offset="0.5711" style="stop-color:#DCBB81"/>
				<stop  offset="0.6264" style="stop-color:#D8B273"/>
				<stop  offset="0.6879" style="stop-color:#C7A469"/>
				<stop  offset="0.8092" style="stop-color:#9C8050"/>
				<stop  offset="0.9771" style="stop-color:#574527"/>
				<stop  offset="1" style="stop-color:#4D3D21"/>
			</linearGradient>
			<path style="fill:url(#SVGID_00000115490196235162242170000018018445852021079977_);" d="M83.7,88.5c0,3,2.2,4.7,4,6.1
				c1.8,1.4,3.1,2.5,3.1,4c0,1.5-1.4,2.5-3.4,2.5c-1.9,0-4.2-1-4.8-3.6l-0.7,0c0,1.1-0.4,3.3-0.7,4.2c2.1,0.9,4.1,1.4,6.5,1.4
				c5.5,0,7.7-3.5,7.7-6.4c0-2.7-1.6-4-3.8-5.8c-2.8-2.4-3.5-3.1-3.5-4.4c0-1.8,1.6-2.5,3.1-2.5c1.7,0,2.6,0.7,3.1,1.2
				c0.6,0.7,0.9,1.4,1,2l0.6,0c0.4-1.6,0.7-2.6,1.3-3.8c-1.8-0.9-3.9-1.4-5.9-1.4C85.5,82,83.7,85.8,83.7,88.5z"/>
			
				<linearGradient id="SVGID_00000151527003953169329790000008781045011356496005_" gradientUnits="userSpaceOnUse" x1="-99.2686" y1="92.4922" x2="154.0336" y2="92.4922">
				<stop  offset="5.494510e-03" style="stop-color:#FFFFFF"/>
				<stop  offset="0.263" style="stop-color:#E6D0A1"/>
				<stop  offset="0.3785" style="stop-color:#E5CE9E"/>
				<stop  offset="0.4779" style="stop-color:#E2C793"/>
				<stop  offset="0.5711" style="stop-color:#DCBB81"/>
				<stop  offset="0.6264" style="stop-color:#D8B273"/>
				<stop  offset="0.6879" style="stop-color:#C7A469"/>
				<stop  offset="0.8092" style="stop-color:#9C8050"/>
				<stop  offset="0.9771" style="stop-color:#574527"/>
				<stop  offset="1" style="stop-color:#4D3D21"/>
			</linearGradient>
			<path style="fill:url(#SVGID_00000151527003953169329790000008781045011356496005_);" d="M112.2,82.4c-2.4,0-5.4,0-8.1-0.1
				c-0.1,0.9-0.2,1.7-0.5,2.6c1-0.1,2.7-0.3,4.1-0.3c0.5,0,0.9,0,1.3,0c-0.3,3-2.5,12.9-4,18.1c0.9-0.1,1.8-0.1,2.7-0.1
				c0.9,0,1.9,0,2.8,0.1c0.1-1.1,0.3-2.5,1-5.9c1.7-7.9,2.3-10.6,2.8-12.2c0.6,0,1.3,0,1.9,0c0.9,0,2.2,0.1,3.4,0.3
				c0.1-0.9,0.3-1.8,0.6-2.6C118.3,82.3,114.7,82.4,112.2,82.4z"/>
			
				<linearGradient id="SVGID_00000110444673946350282840000013825092474648107708_" gradientUnits="userSpaceOnUse" x1="-90.3937" y1="83.6846" x2="162.9084" y2="83.6846">
				<stop  offset="5.494510e-03" style="stop-color:#FFFFFF"/>
				<stop  offset="0.263" style="stop-color:#E6D0A1"/>
				<stop  offset="0.3785" style="stop-color:#E5CE9E"/>
				<stop  offset="0.4779" style="stop-color:#E2C793"/>
				<stop  offset="0.5711" style="stop-color:#DCBB81"/>
				<stop  offset="0.6264" style="stop-color:#D8B273"/>
				<stop  offset="0.6879" style="stop-color:#C7A469"/>
				<stop  offset="0.8092" style="stop-color:#9C8050"/>
				<stop  offset="0.9771" style="stop-color:#574527"/>
				<stop  offset="1" style="stop-color:#4D3D21"/>
			</linearGradient>
			<path style="fill:url(#SVGID_00000110444673946350282840000013825092474648107708_);" d="M27.6,85.1h2.9c0.8,0,1.4-0.6,1.4-1.4
				c0-0.8-0.6-1.4-1.4-1.4h-3c-0.8,0-1.5,0.7-1.4,1.5C26.3,84.5,26.9,85.1,27.6,85.1z"/>
		</g>
	</g>
	
		<linearGradient id="SVGID_00000181046324615875186410000011783963193456346540_" gradientUnits="userSpaceOnUse" x1="31.3369" y1="118.554" x2="31.3369" y2="9.5641">
		<stop  offset="5.494510e-03" style="stop-color:#FFFFFF"/>
		<stop  offset="0.263" style="stop-color:#E6D0A1"/>
		<stop  offset="0.3785" style="stop-color:#E5CE9E"/>
		<stop  offset="0.4779" style="stop-color:#E2C793"/>
		<stop  offset="0.5711" style="stop-color:#DCBB81"/>
		<stop  offset="0.6264" style="stop-color:#D8B273"/>
		<stop  offset="0.6879" style="stop-color:#C7A469"/>
		<stop  offset="0.8092" style="stop-color:#9C8050"/>
		<stop  offset="0.9771" style="stop-color:#574527"/>
		<stop  offset="1" style="stop-color:#4D3D21"/>
	</linearGradient>
	<path style="fill:url(#SVGID_00000181046324615875186410000011783963193456346540_);" d="M45.1,68.4l-12.3,10
		c-1.1,0.9-2.6,0.8-3.6,0l-11.7-9.9c-0.7-0.6-1.1-1.4-1.1-2.3V40.5c0-1.6,1.3-3,2.9-3h24c1.6,0,2.9,1.3,2.9,3v25.5
		C46.2,67,45.8,67.8,45.1,68.4z"/>
	<g>
		<path class="st1" d="M28.1,45.9c0.9,0,1.4-0.6,1.4-1.4c0-0.8-0.5-1.3-1.4-1.3c-1,0-1.4,0.6-1.4,1.4C26.7,45.3,27.2,45.9,28.1,45.9
			z M28.1,43.4c0.5,0,0.5,0.7,0.5,1.1c0,0.5-0.1,1.1-0.5,1.1c-0.5,0-0.5-0.8-0.5-1.1C27.6,44.2,27.6,43.4,28.1,43.4z"/>
		<path class="st1" d="M38.5,45c0,0.3,0,0.5,0,0.8c0.1,0,0.3,0,0.5,0c0.1,0,0.3,0,0.4,0c0-0.1,0-0.3,0-0.4v-1.1
			c0-0.3,0.1-0.6,0.4-0.6c0.4,0,0.4,0.3,0.4,0.9c0,0.4,0,0.8-0.1,1.2c0.1,0,0.2,0,0.4,0c0.2,0,0.3,0,0.5,0c0-0.2,0-0.4,0-0.7v-1.1
			c0-0.2,0-0.4-0.1-0.6c-0.1-0.2-0.5-0.3-0.7-0.3c-0.4,0-0.7,0.2-0.8,0.4l0-0.4c-0.1,0-0.2,0-0.4,0c-0.2,0-0.4,0-0.4,0
			c0,0.3,0,0.5,0,0.8V45z"/>
		<path class="st1" d="M36.5,45.9c0.9,0,1.4-0.6,1.4-1.4c0-0.8-0.5-1.3-1.4-1.3c-1,0-1.4,0.6-1.4,1.4C35.1,45.3,35.6,45.9,36.5,45.9
			z M36.5,43.4c0.5,0,0.5,0.7,0.5,1.1c0,0.5-0.1,1.1-0.5,1.1c-0.5,0-0.5-0.8-0.5-1.1C35.9,44.2,36,43.4,36.5,43.4z"/>
		<path class="st1" d="M33.2,45.8c0.1,0,0.2,0,0.4,0c0.2,0,0.3,0,0.5,0c0-0.5-0.1-1-0.1-1.1c0-0.3,0-0.7,0.4-0.7
			c0.1,0,0.2,0,0.3,0.1l0.1,0c0-0.4,0-0.6,0-0.8c-0.3,0-0.5,0-0.8,0.6l0-0.6c-0.1,0-0.2,0-0.4,0c-0.2,0-0.4,0-0.4,0
			c0,0.5,0,0.9,0,1.4C33.2,45.4,33.2,45.5,33.2,45.8z"/>
		<path class="st1" d="M23.2,42.8c0.2,0,0.4-0.2,0.4-0.4c0-0.2-0.2-0.4-0.4-0.4c-0.2,0-0.4,0.2-0.4,0.4
			C22.7,42.6,22.9,42.8,23.2,42.8z"/>
		<path class="st1" d="M43.6,59.9c0-1.7-0.2-2.5-0.9-3.2c-0.8-1-2.1-1.2-3-1.2c-1,0-2.6,0.2-3.7,2.1c0-3.1,0-5.3,0.3-7.7
			C35.7,50,35,50,34.3,50c-0.7,0-1.4,0-2.1-0.1c0.2,2.1,0.2,8.8,0.2,11.4c0,2,0,4-0.2,6c0.7-0.1,1.3-0.1,2-0.1c0.6,0,1.4,0,2,0.1
			c-0.2-1.3-0.2-2.5-0.2-3.8c0-0.9,0-3.1,0.1-4c0.1-1.1,0.9-1.8,1.9-1.8c1.6,0,1.8,1.5,1.8,4.1c0,0.3,0,3.4-0.3,5.5
			c0.6-0.1,1.3-0.1,1.9-0.1c0.7,0,1.4,0,2.1,0.1c-0.1-1.3-0.1-2.5-0.1-3.8C43.5,62.3,43.6,61.1,43.6,59.9z"/>
		<path class="st1" d="M32.7,45.7c0,0,0-0.1,0-0.1c-0.1,0-0.1,0-0.2,0c-0.3,0-0.3-0.2-0.3-0.6c0-0.5,0-1,0-1.5c0.1,0,0.3,0,0.5,0
			c0,0,0-0.1,0-0.2c0-0.1,0-0.1,0-0.2c-0.2,0-0.3,0-0.5,0c0-0.2,0-0.6,0.1-0.9l-0.1,0c-0.1,0.1-0.4,0.2-0.8,0.4c0,0.2,0,0.4,0,0.6
			c-0.1,0-0.2,0-0.3,0c0,0.1,0,0.1,0,0.2c0,0.1,0,0.1,0,0.2c0.1,0,0.2,0,0.3,0c0,0.4,0,1.1,0,1.6c0,0.3,0,0.4,0.2,0.6
			c0.1,0.1,0.3,0.2,0.5,0.2c0.2,0,0.3,0,0.6-0.1C32.7,45.8,32.7,45.7,32.7,45.7z"/>
		<path class="st1" d="M44.1,43.4c0-0.1,0-0.1,0-0.1c-0.1,0-0.2,0-0.3,0c-0.2,0-0.3,0-0.6-0.1c-0.2,0-0.3,0-0.5,0
			c-0.7,0-1.1,0.3-1.1,0.8c0,0.4,0.3,0.7,0.7,0.8v0c-0.5,0.1-0.5,0.4-0.5,0.5c0,0.2,0.2,0.4,0.4,0.4v0c-0.1,0-0.6,0.1-0.6,0.6
			c0,0.5,0.4,0.8,1.1,0.8c1.1,0,1.5-0.7,1.5-1.2c0-0.2,0-0.4-0.3-0.6c-0.1-0.1-0.2-0.1-0.9-0.2c-0.5,0-0.6,0-0.6-0.2
			c0-0.1,0.1-0.2,0.2-0.2c0,0,0.1,0,0.1,0c0.1,0,0.2,0,0.2,0c0.5,0,1.1-0.2,1.1-0.8c0-0.2-0.1-0.4-0.2-0.5l0.5,0
			C44.1,43.5,44.1,43.5,44.1,43.4z M42.4,45.9c0.1,0,0.6,0,0.7,0c0.2,0,0.4,0.2,0.4,0.5c0,0.2-0.1,0.6-0.8,0.6
			c-0.5,0-0.7-0.3-0.7-0.6c0-0.1,0-0.2,0.1-0.4C42.2,45.9,42.3,45.9,42.4,45.9z M42.7,44.7c-0.3,0-0.4-0.4-0.4-0.6
			c0-0.3,0-0.7,0.4-0.7c0.2,0,0.3,0.2,0.3,0.6C43,44.4,42.9,44.7,42.7,44.7z"/>
		<path class="st1" d="M26,58.7c1.6-0.3,3.6-1.4,3.6-3.8c0-2.8-2.7-3.9-5.3-3.9c-3.2,0-4.5,1.7-5,2.3c0.7,0.5,1.6,1.6,1.9,2.1
			l0.4-0.1c0.1-1.1,0.4-3,2.2-3c1.8,0,1.9,1.9,1.9,2.8c0,3.1-1.5,3.2-2.5,3.2c-0.3,0-0.5,0-0.7,0c0.1,0.4,0.1,1,0.1,1.6
			c0.1,0,0.5-0.1,1-0.1c1.9,0,2.4,1.4,2.4,3.2c0,1.5-0.5,3.4-2.3,3.4c-1.4,0-2.4-1.2-2.4-3l-0.5-0.1c-0.6,1.1-1.2,1.8-1.8,2.5
			c0.8,0.9,2.1,2,4.7,2c3.7,0,6.4-2.1,6.4-5C30.1,59.9,28.1,59,26,58.7z"/>
		<path class="st1" d="M22.7,45.8c0.1,0,0.3,0,0.4,0c0.1,0,0.3,0,0.5,0c0-0.4-0.1-1-0.1-1.5c0-0.4,0-0.8,0-1.1c-0.1,0-0.3,0-0.4,0
			c-0.1,0-0.3,0-0.5,0c0,0.4,0.1,0.9,0.1,1.3C22.8,44.9,22.8,45.4,22.7,45.8z"/>
		<path class="st1" d="M24.7,45.9c0.4,0,0.6-0.2,0.7-0.4c0,0.1,0.1,0.3,0.5,0.3c0.2,0,0.5-0.1,0.6-0.2c0-0.1,0-0.1,0-0.2
			c0,0-0.1,0.1-0.2,0.1c-0.2,0-0.2-0.2-0.2-0.4c0-0.5,0-0.9,0-1.1c0-0.2,0-0.4-0.2-0.6c-0.2-0.2-0.5-0.3-0.8-0.3
			c-0.3,0-0.6,0.1-1,0.3c0.1,0.1,0.1,0.2,0.1,0.3l0,0c0.1-0.1,0.3-0.3,0.7-0.3c0.3,0,0.5,0.2,0.5,0.5c0,0.1,0,0.2-0.4,0.3
			c-0.7,0.2-1.1,0.3-1.1,0.9C24,45.5,24.1,45.9,24.7,45.9z M25.4,44.5c0,0.5,0,0.7,0,0.8c0,0.1-0.1,0.2-0.3,0.2
			c-0.3,0-0.3-0.2-0.3-0.4C24.8,44.7,24.9,44.6,25.4,44.5z"/>
		<path class="st1" d="M20.6,45.9c0.5,0,1-0.1,1.5-0.3c0-0.3,0-0.7,0-0.8c0-0.3,0-0.5,0-0.6c-0.2,0-0.3,0-0.5,0c-0.2,0-0.3,0-0.5,0
			c0,0.3,0.1,0.6,0.1,0.8c0,0.2,0,0.3,0,0.5c-0.2,0-0.3,0.1-0.5,0.1c-0.7,0-1.2-0.6-1.2-1.5c0-1,0.6-1.5,1.3-1.5
			c0.6,0,0.9,0.4,1,0.6l0.1,0c0-0.2,0.1-0.4,0.2-0.6c-0.4-0.2-0.9-0.3-1.3-0.3c-1.6,0-2.2,1-2.2,1.9C18.6,45.1,19.4,45.9,20.6,45.9z
			"/>
	</g>
</g>
</svg>
