<svg xmlns="http://www.w3.org/2000/svg" viewBox="0 0 136.71 136.71"><defs><style>.cls-1{fill:#fff;}.cls-2{fill:#1c3766;}</style></defs><g id="Layer_2" data-name="Layer 2"><g id="Layer_1-2" data-name="Layer 1"><circle class="cls-1" cx="68.35" cy="68.35" r="68.35"/><path class="cls-2" d="M30.36,91.25l-6.08-3.91a3,3,0,0,1-1.06-2.27V72.23a15.41,15.41,0,0,1,4.36-10.85c2.72-2.74,7-5.2,13.64-5.2,12.28,0,16.85,11.42,16.85,13.14S58.07,85,68.63,85,79,76,79.21,74c.36-2.84-2.87-9.25-9.43-9.25s-9.14,3.14-9.14,3.14c-2.29-5.14-6.86-10-9.71-11.43V45c1.67,0,6.61,4.88,7.63,7.49v6.38s4.32-3.39,11.64-2.67c6.49.63,10.8,3.83,13.3,8.39s9,16.69,9,16.69l10.27-22.08a7.69,7.69,0,0,1,7-4.43h3.73L96.17,91.31H88.86L84,82.3a16.45,16.45,0,0,1-15.27,9.37q-.52,0-1,0C58.51,91.13,51.46,83.19,51.46,74v0a10.44,10.44,0,0,0-3.59-8,9.68,9.68,0,0,0-6.32-2.46c-.29,0-.58,0-.87,0A11.14,11.14,0,0,0,30.42,74.55C30.32,81,30.17,91.44,30.36,91.25Z"/></g></g></svg>