<svg xmlns="http://www.w3.org/2000/svg" viewBox="0 0 136.71 136.71"><defs><style>.cls-1{fill:#fff;}.cls-2{fill:#1c3766;}</style></defs><g id="Layer_2" data-name="Layer 2"><g id="Layer_1-2" data-name="Layer 1"><circle class="cls-1" cx="68.35" cy="68.35" r="68.35"/><path class="cls-2" d="M104.85,36.62a4.49,4.49,0,0,0-4.48-4.48h-64a4.51,4.51,0,0,0-4.52,4.48V77.09a4.53,4.53,0,0,0,4.52,4.52h6.15a1.72,1.72,0,1,0,0-3.43H36.38a1.11,1.11,0,0,1-1.09-1.09V36.62a1.07,1.07,0,0,1,1.09-1h64a1,1,0,0,1,1,1V77.09a1.07,1.07,0,0,1-1,1.09H94.11a1.72,1.72,0,1,0,0,3.43h6.26a4.51,4.51,0,0,0,4.48-4.52V36.62Z"/><path class="cls-2" d="M43.29,42.08H75.57a1.52,1.52,0,0,0,0-3H43.29a1.52,1.52,0,0,0,0,3Z"/><path class="cls-2" d="M43.29,50.14H68a1.52,1.52,0,0,0,0-3H43.29a1.52,1.52,0,0,0,0,3Z"/><path class="cls-2" d="M91.77,93.79v-.11a.43.43,0,0,1,0-.05s0,0,0-.08,0,0,0-.07,0,0,0-.07l0-.08s0,0,0-.06l0-.08,0-.06,0-.07,0-.06-.05-.06,0-.06,0,0,0-.06-.06-.06,0,0-.08-.06,0,0A37.85,37.85,0,0,1,78.08,75.92a17.27,17.27,0,0,0,2.41,1.26,18.3,18.3,0,0,0,7.22,1.49l.86,0h0a7.7,7.7,0,0,0,6.31-3.9A17.52,17.52,0,0,0,94.49,57h0a7.64,7.64,0,0,0-7.6-3.53,22.91,22.91,0,0,0-12.56,6.18,4.34,4.34,0,0,0-.48-.14h0a27.37,27.37,0,0,0-10.93-.11,4.67,4.67,0,0,0-.64.18,22.91,22.91,0,0,0-12.5-6.11A7.64,7.64,0,0,0,42.18,57a17.52,17.52,0,0,0-.39,17.75h0a7.73,7.73,0,0,0,6.3,3.89h0l.88,0a18.43,18.43,0,0,0,7.18-1.46c.48-.21,1-.43,1.42-.68A44,44,0,0,1,44.35,91.2l0,0-.06,0-.06,0-.05,0,0,.06-.05,0,0,.06,0,.06,0,.06,0,.06,0,.07,0,.07,0,.07a.14.14,0,0,1,0,.06s0,.06,0,.08v0s0,0,0,0,0,.05,0,.08,0,.05,0,.07v.07a.25.25,0,0,0,0,.08v.07a.22.22,0,0,1,0,.08.2.2,0,0,0,0,.07s0,0,0,.07a.64.64,0,0,0,0,.07s0,0,0,.07l0,.08s0,0,0,.06l0,.07a.43.43,0,0,0,0,.07l0,.06.05.07s0,0,0,0v0l.09.11,0,0,.12.11,0,0,.1.08,0,0,.1.06,0,0,.1,0,.06,0,.12,0h0a21.46,21.46,0,0,0,4.92.56,22.44,22.44,0,0,0,3.47-.27,36,36,0,0,1-4.24,8h0l-.06.08,0,0,0,.05a1.59,1.59,0,0,0-.15.45.07.07,0,0,1,0,.05v.06s0,.06,0,.09h0a1.47,1.47,0,0,0,0,.36s0,.05,0,.08,0,0,0,0l0,.1h0a.54.54,0,0,0,0,.11s0,0,0,0l.05.09,0,0,0,.07,0,0,.07.09h0l.1.1,0,0,.09.07h0l.06,0,0,0,0,0,.05,0h0a.15.15,0,0,0,.07,0h0a1.18,1.18,0,0,0,.31.08l.23,0h.2l.12,0h.05l.11,0,0,0h0A33.15,33.15,0,0,0,66.65,91.34a1.52,1.52,0,0,0-2.57-1.61,30,30,0,0,1-9.82,9.66A39,39,0,0,0,57,92.59h0v0a.08.08,0,0,1,0,0s0-.06,0-.09,0,0,0-.06,0-.06,0-.09,0,0,0-.07v-.15s0,0,0-.07a.28.28,0,0,0,0-.09.13.13,0,0,0,0-.06s0-.06,0-.09,0,0,0,0v0a.41.41,0,0,0,0-.08.14.14,0,0,0,0-.06l0-.07,0-.07,0,0a.35.35,0,0,0,0-.08v0l-.07-.1,0,0-.07-.08L56.54,91h0l-.1-.08h0l-.09-.06a.05.05,0,0,1,0,0l-.07,0-.07,0,0,0a.32.32,0,0,0-.09,0h0l-.1,0h-.59l-.08,0h0a19.13,19.13,0,0,1-6.1.75,46.79,46.79,0,0,0,13.06-17.2,43.23,43.23,0,0,0,20,30.12h0l0,0,.06,0,0,0,.06,0h0l.08,0h0l.08,0h0l.08,0h.53l.11,0h0l.09,0h0l.12,0h0l.11-.07h0l.11-.08,0,0a.39.39,0,0,0,.1-.08h0l.08-.08,0,0,.07-.09h0l0-.09v0a.16.16,0,0,0,0-.07l0-.06,0-.07,0-.07s0,0,0-.06a.19.19,0,0,0,0-.08.13.13,0,0,0,0-.06.24.24,0,0,0,0-.08s0,0,0-.08v-.07a.22.22,0,0,0,0-.08s0,0,0-.06v-.09a.13.13,0,0,1,0-.06s0,0,0-.08a.64.64,0,0,1,0-.07.14.14,0,0,0,0-.06s0-.06,0-.08v0c-1-2.6-1.86-5.25-2.7-8a24.53,24.53,0,0,0,6.65.92q1,0,2.1-.09h.09l.1,0h.06l.11,0,0,0,.11,0,0,0,.14-.08h0l.11-.09,0,0a.6.6,0,0,0,.08-.08l0,0,.08-.1,0,0h0a.56.56,0,0,1,0-.08l0,0,0-.08a.14.14,0,0,0,0-.06.25.25,0,0,0,0-.07.14.14,0,0,1,0-.06s0-.05,0-.08a.25.25,0,0,1,0-.07s0,0,0-.07,0,0,0-.07,0,0,0-.07v-.14ZM78.21,72.32a14.47,14.47,0,0,1,10.3,3.3h-.09A15.14,15.14,0,0,1,78.21,72.32ZM91.92,58.59h0a14.52,14.52,0,0,1,.32,14.69,4.65,4.65,0,0,1-.73,1,17.52,17.52,0,0,0-14.13-4.88c0-.24.05-.48.08-.72H78a8.56,8.56,0,0,0,3.3-.66,1.11,1.11,0,1,0-.86-2,6.4,6.4,0,0,1-2.9.47,17.19,17.19,0,0,0-.17-1.9,5.44,5.44,0,0,1,3.59-1.14A1.11,1.11,0,1,0,81,61.17a7.68,7.68,0,0,0-4.19,1,3.71,3.71,0,0,0-.22-.55,19.93,19.93,0,0,1,10.72-5.19A4.63,4.63,0,0,1,91.92,58.59ZM73.21,62.47h0a.94.94,0,0,1,.73.62,14.38,14.38,0,0,1,.31,6.65h0a.93.93,0,0,1-.73.73,24.2,24.2,0,0,1-10.34.11h0a1,1,0,0,1-.74-.73A14.36,14.36,0,0,1,62.77,63a.92.92,0,0,1,.72-.62A24.28,24.28,0,0,1,73.21,62.47Zm-23.87-6a19.88,19.88,0,0,1,10.71,5.18,3.94,3.94,0,0,0-.18.48.24.24,0,0,0,0,.08,7.74,7.74,0,0,0-4.2-1,1.11,1.11,0,0,0,.09,2.22,5.44,5.44,0,0,1,3.6,1.14q-.14.9-.18,1.8a6.36,6.36,0,0,1-2.89-.47,1.11,1.11,0,1,0-.86,2,8.5,8.5,0,0,0,3.3.67l.5,0c0,.29,0,.57.09.86a17.43,17.43,0,0,0-14.15,4.83,4.82,4.82,0,0,1-.72-1h0a14.5,14.5,0,0,1,.33-14.69A4.6,4.6,0,0,1,49.34,56.46Zm-1.1,19.17h-.1a14.65,14.65,0,0,1,10.29-3.25A15.19,15.19,0,0,1,48.24,75.63Zm16.87-1.69A27,27,0,0,0,74,73.46,40.9,40.9,0,0,0,85.9,92.25,21.41,21.41,0,0,1,80,90.71l0,0-.08,0-.07,0-.07,0H79.1l-.09,0H79l-.09,0,0,0-.07,0-.07,0,0,0-.08,0,0,0-.07,0a2.06,2.06,0,0,0-.29.3v0l0,.07,0,.06,0,.06,0,.07v0s0,0,0,0l0,.09s0,0,0,.06a.24.24,0,0,1,0,.08s0,0,0,.07,0,0,0,.07,0,0,0,.08v.22a.22.22,0,0,1,0,.08.15.15,0,0,1,0,.07.24.24,0,0,1,0,.08.09.09,0,0,1,0,.05c.65,2.3,1.32,4.5,2,6.63A39.87,39.87,0,0,1,65.11,73.94Z"/></g></g></svg>