<?xml version="1.0" encoding="utf-8"?>
<!-- Generator: Adobe Illustrator 25.0.1, SVG Export Plug-In . SVG Version: 6.00 Build 0)  -->
<svg version="1.1" id="Layer_1" xmlns="http://www.w3.org/2000/svg" xmlns:xlink="http://www.w3.org/1999/xlink" x="0px" y="0px"
	 viewBox="0 0 51.8 14" style="enable-background:new 0 0 51.8 14;" xml:space="preserve">
<style type="text/css">
	.st0{fill:#003468;}
	.st1{fill:url(#SVGID_1_);}
	.st2{fill:url(#SVGID_2_);}
	.st3{fill:url(#SVGID_3_);}
	.st4{fill:url(#SVGID_4_);}
	.st5{fill:url(#SVGID_5_);}
	.st6{fill:url(#SVGID_6_);}
	.st7{fill:url(#SVGID_7_);}
	.st8{fill:url(#SVGID_8_);}
</style>
<g>
	<g>
		<g>
			<path class="st0" d="M26,0.3c-1.7-0.1-3.1,1.1-3.2,2.7c0,0.1,0,0.1,0,0.2c0,1.3,0.7,2.3,2.7,2.3c0.5,0,1.1-0.1,1.6-0.2
				c0.1-0.7,0.3-1.4,0.5-2.1c-0.2,0-0.4,0-0.5,0c-0.2,0-0.4,0-0.6,0c-0.1,0.6-0.2,1.2-0.4,1.8c-0.2,0.1-0.4,0.1-0.6,0.1
				c-1.1,0-1.5-0.7-1.5-1.6c0-1.1,0.6-2.8,2.3-2.8c0.6,0,1.1,0.2,1.5,0.7h0.1C27.8,1.2,28,1,28.1,0.8C27.4,0.5,26.7,0.3,26,0.3z"/>
			<path class="st0" d="M29.7,0c-0.3,0-0.6,0.2-0.6,0.6s0.2,0.6,0.6,0.6c0.3,0,0.6-0.2,0.6-0.6C30.3,0.3,30,0,29.7,0
				C29.7,0,29.7,0,29.7,0z M29.4,2c-0.2,0-0.4,0-0.6,0c-0.2,1.2-0.5,2.4-0.8,3.6c0.2,0,0.4,0,0.6,0c0.2,0,0.4,0,0.6,0
				C29.4,4.3,29.7,3.1,30,2C29.8,2,29.6,2,29.4,2z"/>
			<path class="st0" d="M33.3,5.3c-0.2,0-0.2-0.2-0.2-0.3c0-0.2,0-0.4,0.1-0.6l0.2-0.9c0.1-0.2,0.1-0.4,0.1-0.7
				c0-0.7-0.6-0.9-1.1-0.9c-0.5,0-0.9,0.1-1.3,0.3c0,0.2,0,0.2,0,0.4l0,0c0.2-0.2,0.5-0.3,0.8-0.3c0.3,0,0.6,0.1,0.6,0.6
				s-0.1,0.4-0.6,0.5c-0.3,0-0.6,0.1-0.9,0.1c-0.5,0.1-0.8,0.6-0.8,1.1c0,0.5,0.4,0.9,0.9,1c0,0,0.1,0,0.1,0C31.6,5.7,32,5.4,32.2,5
				c0,0.3,0.3,0.6,0.7,0.6c0.2,0,0.4-0.1,0.6-0.2l-0.1-0.2C33.4,5.3,33.3,5.3,33.3,5.3z M32.2,4.2c-0.1,0.4-0.2,0.9-0.6,0.9
				c-0.3,0-0.4-0.3-0.4-0.5c0-0.3,0.1-0.6,0.3-0.8c0.3-0.1,0.5-0.2,0.8-0.2L32.2,4.2z"/>
			<path class="st0" d="M36.1,1.9c-1.2,0-2.2,0.9-2.2,2.1c0,0,0,0,0,0c0,0.8,0.6,1.5,1.4,1.6c0,0,0.1,0,0.1,0c1.2,0,2.2-0.9,2.2-2.1
				c0.1-0.8-0.6-1.5-1.4-1.6C36.3,1.9,36.2,1.9,36.1,1.9z M35.5,5.4c-0.5,0-0.6-0.5-0.6-0.9c0-0.6,0.3-2.2,1.2-2.2
				c0.5,0,0.6,0.5,0.6,0.9C36.7,3.7,36.4,5.4,35.5,5.4L35.5,5.4z"/>
		</g>
		<g>
			<path class="st0" d="M20.3,6.9c-0.6,0-1.2,0-1.8-0.1c0,0.2-0.1,0.4-0.1,0.6c0.5,0,0.9,0,1.4,0c-0.1,0.6-0.3,1.3-0.4,1.9
				c-0.2,0.9-0.4,1.8-0.7,2.6c0.2,0,0.4,0,0.6,0l0.6,0c0.1-0.9,0.3-1.7,0.5-2.5c0.2-0.8,0.4-1.4,0.5-2c0.4,0,0.8,0,1.2,0.1
				c0-0.2,0.1-0.4,0.1-0.6C21.8,6.9,20.8,6.9,20.3,6.9z"/>
			<path class="st0" d="M24.5,8.3c-0.6,0-1,0.7-1.1,0.9l0.2-0.8c-0.2,0-0.3,0-0.5,0c-0.2,0-0.3,0-0.5,0c-0.2,1.2-0.5,2.4-0.8,3.6
				c0.1,0,0.3,0,0.5,0s0.4,0,0.5,0c0.2-1,0.3-1.6,0.4-1.9s0.3-0.8,0.9-0.8c0.1,0,0.3,0,0.4,0.1h0.1c0-0.3,0.1-0.6,0.3-0.9
				C24.8,8.4,24.7,8.3,24.5,8.3z"/>
			<path class="st0" d="M27,8.4c-1.2,0-2.2,0.9-2.2,2.1c0,0,0,0,0,0c0,0.8,0.6,1.5,1.4,1.6c0,0,0.1,0,0.1,0c1.2,0,2.2-0.9,2.2-2.1
				c0.1-0.8-0.5-1.5-1.3-1.6C27.1,8.3,27.1,8.3,27,8.4z M26.4,11.8c-0.5,0-0.6-0.5-0.6-0.9c0-0.6,0.3-2.2,1.2-2.2
				c0.5,0,0.6,0.5,0.6,0.9C27.5,10.2,27.3,11.8,26.4,11.8z"/>
			<path class="st0" d="M31.8,8.4c-0.5,0-1,0.2-1.3,0.7c0.1-0.3,0.1-0.4,0.2-0.6c-0.2,0-0.3,0-0.5,0c-0.2,0-0.4,0-0.5,0
				c-0.3,1.6-0.6,2.6-0.8,3.6c0.2,0,0.4,0,0.5,0c0.2,0,0.3,0,0.5,0c0.1-0.7,0.3-1.4,0.5-2.1c0.2-0.6,0.6-0.9,1-0.9
				c0.2,0,0.4,0.1,0.4,0.3c0,0,0,0.1,0,0.1c-0.2,0.9-0.4,1.8-0.7,2.6c0.2,0,0.4,0,0.6,0c0.2,0,0.4,0,0.5,0c0.1-0.6,0.2-0.9,0.4-1.6
				c0.1-0.4,0.2-0.8,0.2-1.2C32.7,8.8,32.4,8.4,31.8,8.4z"/>
			<path class="st0" d="M36.9,8.5l-0.9,0c-0.2,0-0.3,0-0.5-0.1c-0.2-0.1-0.4-0.1-0.6-0.1c-1.1,0-1.6,0.6-1.6,1.3
				c0,0.4,0.2,0.8,0.6,0.9v0c-0.4,0.1-0.8,0.3-0.8,0.8c0,0.2,0.1,0.5,0.4,0.5l0,0c-0.5,0.1-1,0.4-1,1c0,0.8,1,1,1.6,1
				c1,0.1,1.8-0.5,2-1.5c0,0,0,0,0-0.1c0-0.3-0.2-0.6-0.5-0.8c-0.3-0.1-0.6-0.1-1-0.1c-0.4,0-0.7,0-0.7-0.3c0-0.2,0.2-0.3,0.4-0.3
				c0,0,0,0,0,0h0.4c0.4,0,0.8-0.1,1.2-0.3c0.3-0.2,0.5-0.6,0.5-1c0-0.3-0.1-0.5-0.3-0.7h0.6C36.8,8.8,36.9,8.6,36.9,8.5z M34,12.2
				c1,0,1.3,0.2,1.3,0.6s-0.4,0.9-1.1,0.9c-0.5,0-1-0.2-1-0.8c0-0.3,0.1-0.5,0.4-0.6C33.8,12.2,33.9,12.2,34,12.2z M34.8,10.5
				c-0.3,0-0.4-0.3-0.4-0.6c0-0.3,0.2-1.3,0.7-1.3c0.4,0,0.4,0.3,0.4,0.6C35.5,9.7,35.3,10.5,34.8,10.5z"/>
		</g>
		<path class="st0" d="M50.4,6.6c-0.7,0-1.3,0.3-1.9,1c0.3-1.4,0.6-2.8,1-3.8c-0.2,0-0.5,0.1-0.8,0c-0.3,0-0.6,0-0.8-0.1
			c-0.2,1.3-1.1,5.4-1.9,8.2c0.3,0,0.6,0,0.8,0c0.3,0,0.5,0,0.8,0.1c0.1-0.6,0.4-2.2,0.7-3.1c0.2-0.6,0.6-1.4,1.4-1.4
			c0.4,0,0.6,0.2,0.6,0.6c0,0.3-0.2,1.1-0.3,1.5c-0.3,1.1-0.4,1.6-0.7,2.5c0.4,0,0.6,0,0.9,0c0.3,0,0.6,0,0.8,0.1
			c0.2-1.1,0.3-1.8,0.4-2c0.1-0.5,0.4-1.6,0.4-2.2C51.8,7.1,51.3,6.6,50.4,6.6z"/>
		<g>
			<path class="st0" d="M39.4,8.8c0.1,1.1,0.6,2.3,1.9,2.3c1.5,0,2-1.8,2-3.1s-0.5-1.8-1.7-1.8c-0.2,0-0.3,0-0.5,0.1
				c0.1-0.4,0.2-0.6,0.2-1c1,0.1,2.9,0.1,2.9-2.6c0-0.9-0.3-1.7-1.3-1.7c-1.2,0-1.6,1.1-1.7,2.1L41,3.2c-0.4-0.6-0.7-0.9-1.4-1.6
				C40.2,1,41.1,0,43.2,0c1.8,0,3.7,0.8,3.7,2.8c0,2.4-2.5,2.8-3.1,2.9v0.1c0.5,0.1,2.4,0.5,2.4,2.7c0,1.8-1.4,3.6-4.4,3.6
				c-2.4,0-3.2-0.9-3.9-1.5c0.7-0.7,0.8-0.9,1.3-1.8L39.4,8.8z"/>
		</g>
	</g>
	<linearGradient id="SVGID_1_" gradientUnits="userSpaceOnUse" x1="-6.9675" y1="-0.1843" x2="23.8917" y2="10.2331">
		<stop  offset="5.494510e-03" style="stop-color:#FFFFFF"/>
		<stop  offset="0.263" style="stop-color:#E6D0A1"/>
		<stop  offset="0.3785" style="stop-color:#E5CE9E"/>
		<stop  offset="0.4779" style="stop-color:#E2C793"/>
		<stop  offset="0.5711" style="stop-color:#DCBB81"/>
		<stop  offset="0.6264" style="stop-color:#D8B273"/>
		<stop  offset="0.6879" style="stop-color:#C7A469"/>
		<stop  offset="0.8092" style="stop-color:#9C8050"/>
		<stop  offset="0.9771" style="stop-color:#574527"/>
		<stop  offset="1" style="stop-color:#4D3D21"/>
	</linearGradient>
	<path class="st1" d="M16.5,6.5H6.2C5.9,6.5,5.7,6.3,5.7,6c0-0.3,0.2-0.5,0.5-0.5h10.3c0.3,0,0.5,0.3,0.5,0.6
		C17,6.3,16.8,6.5,16.5,6.5z"/>
	<linearGradient id="SVGID_2_" gradientUnits="userSpaceOnUse" x1="-4.331" y1="-4.4133" x2="26.5282" y2="6.0042">
		<stop  offset="5.494510e-03" style="stop-color:#FFFFFF"/>
		<stop  offset="0.263" style="stop-color:#E6D0A1"/>
		<stop  offset="0.3785" style="stop-color:#E5CE9E"/>
		<stop  offset="0.4779" style="stop-color:#E2C793"/>
		<stop  offset="0.5711" style="stop-color:#DCBB81"/>
		<stop  offset="0.6264" style="stop-color:#D8B273"/>
		<stop  offset="0.6879" style="stop-color:#C7A469"/>
		<stop  offset="0.8092" style="stop-color:#9C8050"/>
		<stop  offset="0.9771" style="stop-color:#574527"/>
		<stop  offset="1" style="stop-color:#4D3D21"/>
	</linearGradient>
	<path class="st2" d="M18.7,1.3H3.5C3.2,1.3,3,1.1,3,0.8c0-0.3,0.2-0.5,0.5-0.5h15.2c0.3,0,0.5,0.3,0.5,0.6
		C19.2,1.1,19,1.3,18.7,1.3z"/>
	<g>
		<linearGradient id="SVGID_3_" gradientUnits="userSpaceOnUse" x1="-2.2235" y1="-3.0887" x2="28.6357" y2="7.3287">
			<stop  offset="5.494510e-03" style="stop-color:#FFFFFF"/>
			<stop  offset="0.263" style="stop-color:#E6D0A1"/>
			<stop  offset="0.3785" style="stop-color:#E5CE9E"/>
			<stop  offset="0.4779" style="stop-color:#E2C793"/>
			<stop  offset="0.5711" style="stop-color:#DCBB81"/>
			<stop  offset="0.6264" style="stop-color:#D8B273"/>
			<stop  offset="0.6879" style="stop-color:#C7A469"/>
			<stop  offset="0.8092" style="stop-color:#9C8050"/>
			<stop  offset="0.9771" style="stop-color:#574527"/>
			<stop  offset="1" style="stop-color:#4D3D21"/>
		</linearGradient>
		<path class="st3" d="M19.8,3.9h-5.6c-0.3,0-0.5-0.2-0.5-0.5c0-0.3,0.2-0.5,0.5-0.5h5.6c0.3,0,0.5,0.3,0.5,0.6
			C20.3,3.7,20,3.9,19.8,3.9z"/>
		<linearGradient id="SVGID_4_" gradientUnits="userSpaceOnUse" x1="-2.7212" y1="-1.6143" x2="28.138" y2="8.8031">
			<stop  offset="5.494510e-03" style="stop-color:#FFFFFF"/>
			<stop  offset="0.263" style="stop-color:#E6D0A1"/>
			<stop  offset="0.3785" style="stop-color:#E5CE9E"/>
			<stop  offset="0.4779" style="stop-color:#E2C793"/>
			<stop  offset="0.5711" style="stop-color:#DCBB81"/>
			<stop  offset="0.6264" style="stop-color:#D8B273"/>
			<stop  offset="0.6879" style="stop-color:#C7A469"/>
			<stop  offset="0.8092" style="stop-color:#9C8050"/>
			<stop  offset="0.9771" style="stop-color:#574527"/>
			<stop  offset="1" style="stop-color:#4D3D21"/>
		</linearGradient>
		<path class="st4" d="M12.7,3.9h-1.1c-0.3,0-0.5-0.2-0.5-0.5c0-0.3,0.2-0.5,0.5-0.5h1.1c0.3,0,0.5,0.3,0.5,0.6
			C13.2,3.7,12.9,3.9,12.7,3.9z"/>
	</g>
	<g>
		<linearGradient id="SVGID_5_" gradientUnits="userSpaceOnUse" x1="-6.5193" y1="3.5799" x2="24.3399" y2="13.9974">
			<stop  offset="5.494510e-03" style="stop-color:#FFFFFF"/>
			<stop  offset="0.263" style="stop-color:#E6D0A1"/>
			<stop  offset="0.3785" style="stop-color:#E5CE9E"/>
			<stop  offset="0.4779" style="stop-color:#E2C793"/>
			<stop  offset="0.5711" style="stop-color:#DCBB81"/>
			<stop  offset="0.6264" style="stop-color:#D8B273"/>
			<stop  offset="0.6879" style="stop-color:#C7A469"/>
			<stop  offset="0.8092" style="stop-color:#9C8050"/>
			<stop  offset="0.9771" style="stop-color:#574527"/>
			<stop  offset="1" style="stop-color:#4D3D21"/>
		</linearGradient>
		<path class="st5" d="M13.5,9.1H3.2c-0.3,0-0.5-0.2-0.5-0.5c0-0.3,0.2-0.5,0.5-0.5h10.3c0.3,0,0.5,0.3,0.5,0.6
			C14,8.9,13.8,9.1,13.5,9.1z"/>
		<linearGradient id="SVGID_6_" gradientUnits="userSpaceOnUse" x1="-7.2665" y1="5.7933" x2="23.5927" y2="16.2107">
			<stop  offset="5.494510e-03" style="stop-color:#FFFFFF"/>
			<stop  offset="0.263" style="stop-color:#E6D0A1"/>
			<stop  offset="0.3785" style="stop-color:#E5CE9E"/>
			<stop  offset="0.4779" style="stop-color:#E2C793"/>
			<stop  offset="0.5711" style="stop-color:#DCBB81"/>
			<stop  offset="0.6264" style="stop-color:#D8B273"/>
			<stop  offset="0.6879" style="stop-color:#C7A469"/>
			<stop  offset="0.8092" style="stop-color:#9C8050"/>
			<stop  offset="0.9771" style="stop-color:#574527"/>
			<stop  offset="1" style="stop-color:#4D3D21"/>
		</linearGradient>
		<path class="st6" d="M1.6,9.1H0.5C0.2,9.1,0,8.9,0,8.6c0-0.3,0.2-0.5,0.5-0.5h1.1c0.3,0,0.5,0.3,0.5,0.6C2.1,8.9,1.9,9.1,1.6,9.1z
			"/>
	</g>
	<g>
		<linearGradient id="SVGID_7_" gradientUnits="userSpaceOnUse" x1="-3.9768" y1="6.0749" x2="26.8824" y2="16.4924">
			<stop  offset="5.494510e-03" style="stop-color:#FFFFFF"/>
			<stop  offset="0.263" style="stop-color:#E6D0A1"/>
			<stop  offset="0.3785" style="stop-color:#E5CE9E"/>
			<stop  offset="0.4779" style="stop-color:#E2C793"/>
			<stop  offset="0.5711" style="stop-color:#DCBB81"/>
			<stop  offset="0.6264" style="stop-color:#D8B273"/>
			<stop  offset="0.6879" style="stop-color:#C7A469"/>
			<stop  offset="0.8092" style="stop-color:#9C8050"/>
			<stop  offset="0.9771" style="stop-color:#574527"/>
			<stop  offset="1" style="stop-color:#4D3D21"/>
		</linearGradient>
		<path class="st7" d="M13.9,11.7H8.5c-0.3,0-0.5-0.2-0.5-0.5c0-0.3,0.2-0.5,0.5-0.5h5.4c0.3,0,0.5,0.3,0.5,0.6
			C14.4,11.5,14.2,11.7,13.9,11.7z"/>
		<linearGradient id="SVGID_8_" gradientUnits="userSpaceOnUse" x1="-3.4273" y1="4.447" x2="27.4319" y2="14.8644">
			<stop  offset="5.494510e-03" style="stop-color:#FFFFFF"/>
			<stop  offset="0.263" style="stop-color:#E6D0A1"/>
			<stop  offset="0.3785" style="stop-color:#E5CE9E"/>
			<stop  offset="0.4779" style="stop-color:#E2C793"/>
			<stop  offset="0.5711" style="stop-color:#DCBB81"/>
			<stop  offset="0.6264" style="stop-color:#D8B273"/>
			<stop  offset="0.6879" style="stop-color:#C7A469"/>
			<stop  offset="0.8092" style="stop-color:#9C8050"/>
			<stop  offset="0.9771" style="stop-color:#574527"/>
			<stop  offset="1" style="stop-color:#4D3D21"/>
		</linearGradient>
		<path class="st8" d="M17.1,11.7h-1.1c-0.3,0-0.5-0.2-0.5-0.5c0-0.3,0.2-0.5,0.5-0.5h1.1c0.3,0,0.5,0.3,0.5,0.6
			C17.6,11.5,17.4,11.7,17.1,11.7z"/>
	</g>
</g>
</svg>
